<svg xmlns="http://www.w3.org/2000/svg" viewBox="0 0 336 112" width="672" height="224">
  <title>texmark</title>
  <path fill="#e6e6e6" fill-rule="evenodd" d="M 10 0 H 326 A 10 10 0 0 1 336 10 V 102 A 10 10 0 0 1 326 112 H 10 A 10 10 0 0 1 0 102 V 10 A 10 10 0 0 1 10 0 Z M 13 10 H 323 A 3 3 0 0 1 326 13 V 99 A 3 3 0 0 1 323 102 H 13 A 3 3 0 0 1 10 99 V 13 A 3 3 0 0 1 13 10 Z"/>
  <g fill="#e6e6e6" transform="translate(1 1) scale(0.8)">
    <path d="m30 98v-68h20l20 25 20-25h20v68h-20v-39l-20 25-20-25v39zm125 0-30-33h20v-35h20v35h20z"/>
  </g>
  <g fill="#e6e6e6">
    <path transform="translate(165 80) scale(0.08 -0.08)" d="M685 452 666 677H55L36 452H61C75 613 90 646 241 646C259 646 285 646 295 644C316 640 316 629 316 606V79C316 45 316 31 211 31H171V0C212 3 314 3 360 3C406 3 509 3 550 0V31H510C405 31 405 45 405 79V606C405 626 405 640 423 644C434 646 461 646 480 646C631 646 646 613 660 452Z"/>
    <path transform="translate(209.4 93.8) scale(0.08 -0.08)" d="M652 258H627C602 104 579 31 407 31H274C227 31 225 38 225 71V338H315C412 338 423 306 423 221H448V486H423C423 400 412 369 315 369H225V609C225 642 227 649 274 649H403C556 649 583 594 599 455H624L596 680H33V649H57C134 649 136 638 136 602V78C136 42 134 31 57 31H33V0H610Z"/>
    <path transform="translate(253.88 80) scale(0.08 -0.08)" d="M726 0V31H707C655 31 634 36 613 67L402 386L539 587C561 619 595 651 684 652V683L573 680C533 680 485 680 445 683V652C485 651 507 629 507 606C507 596 505 594 498 583L384 414L255 607C253 610 248 618 248 622C248 634 270 651 313 652V683C278 680 205 680 167 680L37 683V652H56C111 652 130 645 149 617L333 339L169 97C155 77 125 31 24 31V0L135 3C172 3 227 3 263 0V31C217 32 200 59 200 77C200 86 203 90 210 101L352 311L510 72C512 68 515 64 515 61C515 49 493 32 450 31V0C485 3 558 3 596 3Z"/>
  </g>
</svg>
